<?xml version="1.0" encoding="UTF-8"?>
<svg version="1.1" xmlns="http://www.w3.org/2000/svg" width="1920" height="1080">
<defs>
  <filter id="letterGlow" x="-50%" y="-50%" width="200%" height="200%">
    <feGaussianBlur stdDeviation="3.5" result="coloredBlur"/>
    <feMerge>
      <feMergeNode in="coloredBlur"/>
      <feMergeNode in="SourceGraphic"/>
    </feMerge>
  </filter>
</defs>
<style>
  svg path { filter: url(#letterGlow); }
</style>
<path d="M0 0 C1.67523264 0.46033448 3.35105398 0.91853002 5.02734375 1.375 C5.94241699 1.62507813 6.85749023 1.87515625 7.80029297 2.1328125 C13.5349809 3.66478944 19.30093059 5.07319084 25.0625 6.5 C33.30180602 8.54922426 41.52729375 10.62516879 49.72265625 12.84375 C55.57403513 14.42012779 61.44543874 15.92082041 67.3125 17.4375 C75.7047387 19.60860652 84.09313278 21.78994612 92.46484375 24.0390625 C94.87238148 24.68519281 97.2809237 25.32600437 99.69140625 25.9609375 C117.3432551 30.61660991 117.3432551 30.61660991 124.96508789 33.48803711 C125.68555801 33.75917831 126.40602814 34.03031952 127.14833069 34.30967712 C127.9720945 34.62044945 127.9720945 34.62044945 128.8125 34.9375 C128.88843983 42.4305168 128.94105332 49.92343471 128.97729492 57.41674805 C128.99240005 59.96691598 129.01288533 62.51705786 129.03881836 65.06713867 C129.07512504 68.72841819 129.09220915 72.38935485 129.10546875 76.05078125 C129.12095261 77.1946077 129.13643646 78.33843414 129.15238953 79.516922 C129.15261612 80.57779526 129.15284271 81.63866852 129.15307617 82.73168945 C129.16306892 84.13400566 129.16306892 84.13400566 129.17326355 85.56465149 C128.75025161 88.34692609 127.98048187 89.21533372 125.8125 90.9375 C122.0621314 89.60707388 118.3125889 88.27434555 114.5637207 86.93969727 C112.67895688 86.26919509 110.79358863 85.60039271 108.90820312 84.93164062 C102.97273119 82.81742239 97.0823798 80.65246769 91.23828125 78.296875 C84.67695361 75.75505438 78.07694858 74.24229056 71.1875 72.875 C69.96836914 72.62314941 68.74923828 72.37129883 67.49316406 72.11181641 C63.93477215 71.37771631 60.37392721 70.65670384 56.8125 69.9375 C53.39441336 69.23589274 49.97798424 68.52665975 46.5625 67.8125 C45.81210449 67.656604 45.06170898 67.50070801 44.28857422 67.34008789 C39.26378303 66.28285051 34.28760751 65.0814617 29.3125 63.8125 C27.99881353 63.48651291 26.68501588 63.16097345 25.37109375 62.8359375 C23.22854533 62.2950087 21.09250144 61.72556095 18.97265625 61.1015625 C11.04898916 59.0759634 4.03281449 61.09051919 -3.63037109 63.22558594 C-16.62258718 66.84266653 -29.69699039 70.17536637 -42.74755859 73.57373047 C-44.95416663 74.14870316 -47.16054788 74.72454695 -49.36669922 75.30126953 C-61.10425457 78.36953523 -72.83907977 81.39990798 -84.66845703 84.09570312 C-85.82974121 84.37349609 -86.99102539 84.65128906 -88.1875 84.9375 C-90.08483887 85.37980957 -90.08483887 85.37980957 -92.02050781 85.83105469 C-95.52803061 86.67615516 -95.52803061 86.67615516 -97.2265625 90.359375 C-97.78308609 91.79156048 -98.31036296 93.23535258 -98.8125 94.6875 C-99.10044434 95.44957764 -99.38838867 96.21165527 -99.68505859 96.99682617 C-100.54798143 99.30107504 -101.37214226 101.61605139 -102.1875 103.9375 C-102.64505432 105.20991582 -103.10332991 106.48207262 -103.5625 107.75390625 C-104.38495695 110.05421553 -105.19900285 112.35755243 -106.00390625 114.6640625 C-107.5258918 118.87338228 -109.26140322 122.97536052 -111.01171875 127.09375 C-112.10975076 129.74945532 -113.10387338 132.41636989 -114.0625 135.125 C-115.98337217 140.50344207 -118.14595412 145.76383604 -120.33496094 151.03686523 C-124.03988272 159.96886316 -127.62443585 168.94811797 -131.1875 177.9375 C-131.45900879 178.61989746 -131.73051758 179.30229492 -132.01025391 180.00537109 C-132.72004677 181.79331878 -133.42278988 183.58406064 -134.125 185.375 C-134.50527344 186.34308594 -134.88554687 187.31117188 -135.27734375 188.30859375 C-136.88885921 192.96331437 -137.66201195 195.7448595 -135.5625 200.3125 C-133.77750766 204.44905221 -132.26664484 208.58910375 -130.875 212.875 C-129.02144945 218.55014836 -127.02623055 224.15732466 -124.9375 229.75 C-122.44459561 236.42987426 -120.05745448 243.13957201 -117.74389648 249.88378906 C-116.95914056 252.16134892 -116.16443844 254.43550704 -115.35961914 256.70605469 C-112.13106657 265.83811038 -112.13106657 265.83811038 -111.20703125 270.16796875 C-110.1171149 274.53275114 -109.17416264 277.6259763 -105.28515625 280.19335938 C-100.30103641 282.87285628 -95.0791651 284.89132782 -89.796875 286.89794922 C-85.86479356 288.46445397 -82.12969576 290.36560404 -78.375 292.3125 C-74.73148146 294.18605507 -71.09818609 295.99615557 -67.30078125 297.5390625 C-64.1875 298.9375 -64.1875 298.9375 -63.1875 300.9375 C-61.8661241 301.31546113 -60.52908634 301.63911269 -59.1875 301.9375 C-48.47652431 305.91147665 -38.37352518 311.25569797 -28.22363281 316.45605469 C-25.00668015 318.10251099 -21.78470576 319.73885281 -18.5625 321.375 C-17.0151416 322.17369507 -17.0151416 322.17369507 -15.43652344 322.98852539 C-14.45458008 323.48602295 -13.47263672 323.98352051 -12.4609375 324.49609375 C-11.15261963 325.16596313 -11.15261963 325.16596313 -9.81787109 325.84936523 C-3.8567377 328.31537336 -0.08210546 327.93726643 5.97265625 325.83203125 C6.66300964 325.5967572 7.35336304 325.36148315 8.06463623 325.11907959 C10.33908429 324.34139606 12.60673049 323.54550418 14.875 322.75 C17.28777664 321.92098928 19.7022265 321.09697801 22.116745 320.27305603 C23.79119921 319.70126492 25.46511227 319.12788682 27.13850403 318.55299377 C36.26406111 315.42191224 45.44179116 312.4567557 54.625 309.5 C73.10285661 303.56245761 73.10285661 303.56245761 91.4765625 297.3125 C102.7458581 293.37813431 114.15929207 290.4971169 125.8125 287.9375 C126.81667969 287.70675781 127.82085937 287.47601562 128.85546875 287.23828125 C129.50128906 287.13902344 130.14710938 287.03976562 130.8125 286.9375 C132.35469433 288.47969433 132.02867038 289.98902763 132.12890625 292.13671875 C132.19198975 293.44467407 132.19198975 293.44467407 132.25634766 294.77905273 C132.29550293 295.71821533 132.3346582 296.65737793 132.375 297.625 C132.4376001 299.06758179 132.4376001 299.06758179 132.50146484 300.53930664 C133.11116974 315.38997592 132.57011509 330.10355765 131.8125 344.9375 C119.99050287 349.22865761 108.07548569 353.15749003 96.0625 356.875 C84.36345445 360.49588729 72.71468558 364.23499409 61.109375 368.1484375 C59.79743164 368.58494629 59.79743164 368.58494629 58.45898438 369.03027344 C56.68864985 369.63715195 54.92904991 370.27625425 53.18164062 370.94628906 C44.45499816 374.16763539 35.64337129 375.31821262 26.47698975 376.56243896 C22.11523601 377.17641163 17.77224461 377.90042247 13.42578125 378.61328125 C10.85364264 379.0236184 8.28101438 379.43075227 5.70825195 379.8371582 C3.96547625 380.11567949 2.22361791 380.39999438 0.48266602 380.68969727 C-2.09655763 381.11737892 -4.67842835 381.52349323 -7.26171875 381.92578125 C-8.02747726 382.05793533 -8.79323578 382.19008942 -9.5821991 382.32624817 C-15.21134419 383.17255623 -19.7365423 382.47745135 -25.1875 380.9375 C-26.32574219 380.63593994 -27.46398437 380.33437988 -28.63671875 380.02368164 C-29.70535156 379.71809326 -30.77398437 379.41250488 -31.875 379.09765625 C-33.66550781 378.5862207 -33.66550781 378.5862207 -35.4921875 378.06445312 C-37.32136719 377.53754883 -37.32136719 377.53754883 -39.1875 377 C-40.40695312 376.65259766 -41.62640625 376.30519531 -42.8828125 375.94726562 C-48.52734024 374.32888321 -54.13123669 372.6572917 -59.68847656 370.76196289 C-65.0519031 368.99249323 -70.47544501 367.40677265 -75.88369751 365.78039551 C-86.50197383 362.58636088 -97.11212336 359.37441114 -107.67211914 355.99169922 C-111.62291205 354.73079828 -115.58344571 353.51667983 -119.5625 352.34765625 C-120.46959717 352.08049805 -121.37669434 351.81333984 -122.3112793 351.53808594 C-124.04563301 351.02973274 -125.78138638 350.52611921 -127.51879883 350.02832031 C-135.15240014 347.79103422 -139.93551441 346.03578396 -144.1875 338.9375 C-145.64876137 336.98646041 -147.12916373 335.04965948 -148.625 333.125 C-149.50808158 331.98458331 -150.39087921 330.84394671 -151.2734375 329.703125 C-151.74233398 329.09791016 -152.21123047 328.49269531 -152.69433594 327.86914062 C-155.39135033 324.38013181 -158.07081522 320.8777079 -160.75 317.375 C-161.58072021 316.28952881 -161.58072021 316.28952881 -162.42822266 315.18212891 C-165.64480454 310.97363275 -168.83407063 306.74671216 -172 302.5 C-174.6690812 298.92663992 -177.38723213 295.40895191 -180.1875 291.9375 C-183.24186411 288.14417683 -186.24033233 284.31437355 -189.1875 280.4375 C-189.950625 279.4371875 -190.71375 278.436875 -191.5 277.40625 C-193.1875 274.9375 -193.1875 274.9375 -193.1875 272.9375 C-193.8475 272.9375 -194.5075 272.9375 -195.1875 272.9375 C-196.16341435 271.54242938 -197.13002541 270.13965799 -198.04150391 268.70166016 C-199.98168347 265.71492443 -202.19191066 262.93640873 -204.375 260.125 C-204.82552734 259.54041016 -205.27605469 258.95582031 -205.74023438 258.35351562 C-207.85057277 255.54836851 -207.85057277 255.54836851 -210.1875 252.9375 C-210.28659549 251.26939257 -210.31549271 249.59707307 -210.31689453 247.92602539 C-210.32000641 246.8444516 -210.32311829 245.76287781 -210.32632446 244.64852905 C-210.32434052 243.45611603 -210.32235657 242.263703 -210.3203125 241.03515625 C-210.32163177 239.79472565 -210.32295105 238.55429504 -210.3243103 237.27627563 C-210.32591119 233.88834361 -210.3225137 230.50049678 -210.31607056 227.11257553 C-210.31251098 225.00649631 -210.31088359 222.90042389 -210.30981445 220.79434204 C-210.29452294 196.52203867 -209.96429139 172.26181824 -209.3399353 147.99697876 C-209.31992462 147.194487 -209.29991394 146.39199524 -209.27929688 145.56518555 C-209.25902939 144.79867676 -209.2387619 144.03216797 -209.21788025 143.24243164 C-209.19692874 141.65285263 -209.20969662 140.06259438 -209.25001526 138.47338867 C-209.26942673 137.68061523 -209.2888382 136.8878418 -209.30883789 136.07104492 C-209.33587296 135.36646652 -209.36290802 134.66188812 -209.39076233 133.93595886 C-208.99917201 130.0858744 -206.52824805 127.44787754 -204.125 124.5625 C-203.10662033 123.26387425 -202.09100304 121.96307761 -201.078125 120.66015625 C-200.33272461 119.71487061 -200.33272461 119.71487061 -199.57226562 118.75048828 C-197.67408543 116.26531795 -196.01729053 113.65947497 -194.375 111 C-191.95367402 107.09220052 -189.38321205 103.40618896 -186.546875 99.7890625 C-185.13295086 97.92763379 -185.13295086 97.92763379 -183.90234375 95.76171875 C-181.46288769 91.74411799 -178.71729963 87.95827949 -176 84.125 C-169.08809169 74.31753775 -162.41161266 64.36254836 -155.78125 54.36328125 C-155.16419189 53.44836914 -154.54713379 52.53345703 -153.91137695 51.59082031 C-152.17590304 48.99451337 -152.17590304 48.99451337 -150.79760742 46.38574219 C-146.80608731 39.33499617 -142.10333962 37.71010996 -134.5 35.5625 C-133.32953125 35.20220703 -132.1590625 34.84191406 -130.953125 34.47070312 C-128.39834707 33.68615453 -125.84277199 32.91359785 -123.27978516 32.15722656 C-119.0298039 30.89853247 -114.80097433 29.57652794 -110.57421875 28.2421875 C-109.84643723 28.01247253 -109.1186557 27.78275757 -108.36882019 27.54608154 C-106.88679696 27.07814181 -105.40481777 26.61006259 -103.92288208 26.1418457 C-101.68406712 25.43641834 -99.44374853 24.73598644 -97.20288086 24.03710938 C-86.82844968 20.79858254 -76.51497707 17.40704611 -66.21630859 13.93408203 C-59.63513841 11.72429476 -53.03708768 9.65596785 -46.36010742 7.75732422 C-39.55014784 5.80240129 -32.84752421 3.53530806 -26.13916016 1.25927734 C-24.86951416 0.82929443 -24.86951416 0.82929443 -23.57421875 0.390625 C-22.44826294 0.00632324 -22.44826294 0.00632324 -21.29956055 -0.38574219 C-13.80164364 -2.78826509 -7.53186597 -2.153956 0 0 Z " fill="#F0F1F5" transform="translate(307.1875,329.0625)"/>
<path d="M0 0 C1.24974609 -0.00386719 2.49949219 -0.00773437 3.78710938 -0.01171875 C5.62692383 -0.00978516 5.62692383 -0.00978516 7.50390625 -0.0078125 C8.59646729 -0.00668457 9.68902832 -0.00555664 10.81469727 -0.00439453 C15.36830659 0.15824533 19.90360023 0.67161002 24.4375 1.125 C24.4375 122.565 24.4375 244.005 24.4375 369.125 C19.68196488 370.07610702 15.5812248 370.10873669 10.80078125 369.85546875 C9.94588608 369.81513016 9.09099091 369.77479156 8.21018982 369.73323059 C5.38981364 369.59877482 2.56994744 369.45564454 -0.25 369.3125 C-2.23467275 369.21622275 -4.21937386 369.12052834 -6.20410156 369.02539062 C-10.30663929 368.82786424 -14.40899109 368.62696674 -18.51123047 368.42333984 C-24.14379722 368.14435119 -29.77683501 367.87654434 -35.41015625 367.61328125 C-44.93275829 367.16753866 -54.45481562 366.71112054 -63.97668457 366.25 C-66.57394828 366.12444658 -69.17124745 365.99964932 -71.76855469 365.875 C-72.62653152 365.83365433 -73.48450836 365.79230865 -74.3684845 365.74971008 C-76.09264928 365.66676905 -77.81684164 365.58439933 -79.5410614 365.50260925 C-83.75159964 365.30083651 -87.96028086 365.08386782 -92.16821289 364.83325195 C-100.04733369 364.37377564 -107.83079782 364.09707727 -115.72265625 364.29296875 C-135.25794052 364.60325084 -135.25794052 364.60325084 -140.95263672 360.33251953 C-145.20482868 355.53530913 -147.68401379 349.98473225 -150.17871094 344.13427734 C-152.54082023 338.99748144 -155.70092386 334.39420975 -158.8125 329.6875 C-159.98468187 327.85732994 -161.15403952 326.02534739 -162.3203125 324.19140625 C-163.40077468 322.50243334 -164.48148749 320.81362073 -165.5625 319.125 C-166.03268555 318.39007324 -166.50287109 317.65514648 -166.98730469 316.89794922 C-171.71306034 309.50223639 -171.71306034 309.50223639 -176.5390625 302.171875 C-178.68617327 298.93877385 -180.76235669 295.67041555 -182.8125 292.375 C-183.17601562 291.79878906 -183.53953125 291.22257812 -183.9140625 290.62890625 C-186.5625 286.35755404 -186.5625 286.35755404 -186.5625 284.125 C-187.2225 284.125 -187.8825 284.125 -188.5625 284.125 C-188.93761719 283.41214844 -189.31273437 282.69929688 -189.69921875 281.96484375 C-193.21200555 275.38210782 -193.21200555 275.38210782 -197.4375 269.25 C-199.5625 266.125 -199.5625 266.125 -200.0625 263.75 C-199.48256707 260.70535214 -198.60292869 257.89175032 -197.56616211 254.97265625 C-193.58972122 243.69043622 -189.96677817 232.27824016 -186.27807617 220.89941406 C-185.49839889 218.49506254 -184.71701627 216.09126956 -183.93554688 213.6875 C-181.06824808 204.855664 -178.27131476 196.00694602 -175.5625 187.125 C-174.10079942 182.36646437 -172.62922379 177.61100539 -171.15307617 172.85693359 C-170.71449707 171.44200363 -170.27734249 170.0266314 -169.84155273 168.61083984 C-169.19873166 166.52328617 -168.55101826 164.43730366 -167.90234375 162.3515625 C-167.52456787 161.13033691 -167.14679199 159.90911133 -166.75756836 158.65087891 C-163.40326323 148.75447957 -163.40326323 148.75447957 -160.30859375 146.4375 C-159.40238281 146.004375 -158.49617187 145.57125 -157.5625 145.125 C-156.50160156 144.485625 -155.44070313 143.84625 -154.34765625 143.1875 C-143.82190796 137.21833413 -133.80372255 135.48055367 -121.84448242 134.35791016 C-119.05915874 134.07362656 -116.31903089 133.61096619 -113.5625 133.125 C-111.31306043 132.85905641 -109.06242801 132.63123167 -106.80859375 132.40625 C-104.57246891 132.15774919 -104.57246891 132.15774919 -102.43701172 131.67749023 C-98.75144131 130.96911196 -95.04446301 130.48634066 -91.32421875 130.00390625 C-90.52579056 129.89908432 -89.72736237 129.79426239 -88.90473938 129.68626404 C-87.21288155 129.46445478 -85.52091818 129.24344925 -83.82885742 129.02319336 C-81.29649233 128.69355197 -78.76443001 128.3616678 -76.23242188 128.02929688 C-72.13404441 127.49214625 -68.03497166 126.96056672 -63.93548584 126.4319458 C-61.60328682 126.13027578 -59.27161795 125.82472103 -56.93994141 125.51904297 C-55.50816683 125.33408676 -54.07636484 125.14934253 -52.64453125 124.96484375 C-51.39518799 124.80234131 -50.14584473 124.63983887 -48.85864258 124.47241211 C-46.05059605 124.17644513 -43.37960784 124.0983353 -40.5625 124.125 C-40.57650345 123.52140656 -40.5905069 122.91781311 -40.60493469 122.29592896 C-40.68608426 116.0662084 -40.20981493 110.09506062 -39.35546875 103.9296875 C-39.23040451 102.98780579 -39.10534027 102.04592407 -38.97648621 101.07550049 C-38.57350656 98.04951775 -38.16173044 95.02480318 -37.75 92 C-37.46948014 89.90227911 -37.18969815 87.80445941 -36.91064453 85.70654297 C-36.36799599 81.62892338 -35.82292989 77.55164053 -35.27587891 73.47460938 C-34.46352266 67.40369118 -33.68713923 61.32900257 -32.9375 55.25 C-32.82889648 54.37625732 -32.72029297 53.50251465 -32.60839844 52.60229492 C-32.00995225 47.77809486 -31.41926966 42.95296288 -30.83007812 38.12762451 C-30.47630715 35.23628382 -30.11994459 32.34526531 -29.76324463 29.45428467 C-29.59108733 28.05359564 -29.42009988 26.6527622 -29.25042725 25.25177002 C-28.26960837 17.15379645 -27.14167601 9.12942883 -25.5625 1.125 C-17.02813465 0.1592605 -8.58352674 -0.02664312 0 0 Z M-93.359375 182.734375 C-97.70408159 184.20654831 -102.05422633 185.58259239 -106.46736145 186.82952881 C-108.42979947 187.38403415 -110.3874397 187.95314025 -112.34448242 188.52636719 C-114.81050372 189.24300237 -117.28461261 189.93253017 -119.7668457 190.59082031 C-120.87632568 190.92178711 -121.98580566 191.25275391 -123.12890625 191.59375 C-124.10802979 191.86638672 -125.08715332 192.13902344 -126.09594727 192.41992188 C-130.01748498 195.13080175 -130.64303935 198.57879637 -131.5625 203.125 C-132.14434786 207.41606339 -132.43930421 211.70191719 -132.6953125 216.0234375 C-132.818564 217.86779892 -132.818564 217.86779892 -132.94430542 219.74942017 C-133.20319691 223.665646 -133.44547662 227.58269943 -133.6875 231.5 C-133.85700704 234.09251783 -134.02757064 236.6849668 -134.19921875 239.27734375 C-134.91761762 250.23610958 -135.59130405 261.19750123 -136.1796875 272.1640625 C-136.24048996 273.28982193 -136.24048996 273.28982193 -136.30252075 274.43832397 C-136.39996889 276.33335866 -136.48208314 278.22916622 -136.5625 280.125 C-136.60648926 281.04200684 -136.65047852 281.95901367 -136.69580078 282.90380859 C-136.37359761 288.27268114 -131.95972199 293.20875799 -128.5625 297.125 C-126.50562574 298.85944532 -124.45518857 300.5062006 -122.3125 302.125 C-121.0718386 303.07932928 -119.83230317 304.03512369 -118.59375 304.9921875 C-117.94277344 305.49459961 -117.29179688 305.99701172 -116.62109375 306.51464844 C-112.2602263 309.92597217 -107.99388388 313.45607871 -103.71777344 316.97265625 C-102.75145996 317.76349609 -102.75145996 317.76349609 -101.765625 318.5703125 C-101.19489258 319.03969238 -100.62416016 319.50907227 -100.03613281 319.99267578 C-96.79830544 322.48058886 -94.16434937 322.30992472 -90.14086914 322.42211914 C-89.15279518 322.45159889 -89.15279518 322.45159889 -88.14476013 322.48167419 C-85.96249514 322.54565228 -83.78010813 322.60293887 -81.59765625 322.66015625 C-80.08311346 322.70317008 -78.56858205 322.74658667 -77.05406189 322.79039001 C-73.06208964 322.90470484 -69.06998081 323.01329621 -65.07781982 323.12078857 C-61.01857386 323.23119134 -56.95949414 323.34739065 -52.90039062 323.46289062 C-46.97151235 323.6304964 -41.04259529 323.79657823 -35.11352539 323.95727539 C-33.91820694 323.98978897 -32.72288849 324.02230255 -31.49134827 324.05580139 C-29.51548231 324.10248431 -27.53891736 324.125 -25.5625 324.125 C-26.14757884 314.4113828 -27.14267797 304.83270263 -28.4375 295.1875 C-28.61823856 293.81776106 -28.79857036 292.44796839 -28.97851562 291.078125 C-29.33742596 288.35014131 -29.69842108 285.62244838 -30.06152344 282.89501953 C-30.61792657 278.70789613 -31.16555615 274.51968847 -31.71044922 270.33105469 C-31.94837976 268.50219054 -32.18700467 266.67341662 -32.42626953 264.84472656 C-33.08895478 259.77898244 -33.7442046 254.71237786 -34.390625 249.64453125 C-36.46684241 233.38965282 -38.60369025 217.1428572 -40.77185059 200.8999939 C-41.09038885 198.51004204 -41.40769214 196.11992527 -41.72375488 193.72964478 C-42.17042223 190.35444353 -42.62172743 186.97989349 -43.07421875 183.60546875 C-43.20948471 182.57670624 -43.34475067 181.54794373 -43.4841156 180.48800659 C-43.61141556 179.54603424 -43.73871552 178.60406189 -43.86987305 177.63354492 C-43.97994186 176.80771408 -44.09001068 175.98188324 -44.20341492 175.13102722 C-44.47626973 173.061947 -44.47626973 173.061947 -45.5625 171.125 C-61.48388444 171.125 -78.48374584 177.69306887 -93.359375 182.734375 Z " fill="#F1F0F2" transform="translate(963.5625,333.875)"/>
<path d="M0 0 C2.97889933 0.63231699 5.96119994 1.24590135 8.94458008 1.85668945 C10.86603083 2.2559903 12.78726293 2.65634504 14.70825195 3.05786133 C15.58660202 3.23924149 16.46495209 3.42062164 17.36991882 3.60749817 C24.96779308 5.23235039 32.29224509 7.19946787 39.0871582 11.06176758 C40.43100586 11.82553711 40.43100586 11.82553711 41.80200195 12.60473633 C43.15745117 13.39170898 43.15745117 13.39170898 44.5402832 14.19458008 C45.45938477 14.71149414 46.37848633 15.2284082 47.32543945 15.76098633 C53.99635306 19.5936241 59.03535147 23.26232722 62.6027832 30.25708008 C64.87775278 34.59755912 67.22141642 38.88470222 69.6652832 43.13208008 C70.00567627 43.72553223 70.34606934 44.31898438 70.69677734 44.93041992 C71.38935344 46.1378299 72.08230601 47.34502401 72.77563477 48.55200195 C74.69246786 51.89123959 76.6031675 55.23401635 78.50634766 58.58105469 C80.55099969 62.17186717 82.62365529 65.74463735 84.71606445 69.30786133 C90.4301924 79.08827634 95.71611903 88.80069429 99.96948242 99.30444336 C100.86989189 101.51502627 101.79909035 103.71223686 102.73168945 105.90942383 C103.37698335 107.44165495 104.02153279 108.97419984 104.6652832 110.50708008 C104.964104 111.21445312 105.2629248 111.92182617 105.57080078 112.65063477 C106.34590687 114.52608843 107.07039444 116.42224614 107.7902832 118.31958008 C108.09708008 119.12008789 108.40387695 119.9205957 108.7199707 120.74536133 C108.83712394 125.03447166 106.850342 128.50109988 105.0402832 132.31958008 C104.6793457 133.11364258 104.3184082 133.90770508 103.9465332 134.72583008 C102.09693837 138.7466884 100.08198917 142.53097947 97.7902832 146.31958008 C97.13041984 147.88870397 96.50496042 149.47275503 95.9152832 151.06958008 C92.71469266 159.25290816 88.32215652 167.45746156 82.7902832 174.31958008 C82.1302832 174.31958008 81.4702832 174.31958008 80.7902832 174.31958008 C80.5221582 175.05305664 80.2540332 175.7865332 79.9777832 176.54223633 C78.81570327 179.26012721 77.51474243 181.36522197 75.7902832 183.75708008 C75.17024414 184.62333008 74.55020508 185.48958008 73.91137695 186.38208008 C72.86143555 187.83614258 72.86143555 187.83614258 71.7902832 189.31958008 C70.98863027 190.4439591 70.18788711 191.56898719 69.38793945 192.69458008 C65.48999705 198.17532793 61.5677098 203.63701593 57.6027832 209.06958008 C56.3311691 210.81901282 55.06031377 212.5689974 53.7902832 214.31958008 C53.15993164 215.18454102 52.52958008 216.04950195 51.88012695 216.94067383 C51.27297852 217.78758789 50.66583008 218.63450195 50.0402832 219.50708008 C49.50918945 220.24313477 48.9780957 220.97918945 48.4309082 221.73754883 C46.77965258 224.13319574 46.77965258 224.13319574 46.07600403 226.2718811 C45.18938533 228.57104425 44.31326903 230.37605689 42.7902832 232.31958008 C39.79802621 233.59885064 36.88736518 233.64941625 33.66137695 233.73754883 C32.76881699 233.79323532 31.87625702 233.84892181 30.95664978 233.90629578 C29.11617068 234.01889667 27.27467271 234.11590823 25.43255615 234.19744873 C22.3492513 234.33996549 19.27978785 234.5772078 16.20361328 234.8260498 C13.22753843 235.06281795 10.24934811 235.26403608 7.27081299 235.46710205 C3.80635667 235.70347597 0.34241493 235.94706395 -3.12158203 236.19006348 C-5.09014784 236.32814603 -7.05873582 236.46591288 -9.02734375 236.60339355 C-22.98993707 237.58011856 -36.94984161 238.59444558 -50.90994263 239.60604858 C-54.77060904 239.88575835 -58.63134069 240.16455597 -62.49209309 240.44307613 C-65.43613164 240.65559107 -68.38012808 240.86868522 -71.32411385 241.08193016 C-73.35035939 241.22855581 -75.37664837 241.37458076 -77.40293884 241.52058411 C-78.64934647 241.611035 -79.89575409 241.7014859 -81.17993164 241.79467773 C-82.36197174 241.875793 -83.54401184 241.95690826 -84.76187134 242.04048157 C-87.06610495 242.22700622 -89.36669047 242.46567657 -91.6602478 242.7552948 C-93.26206406 242.94917534 -93.26206406 242.94917534 -94.89624023 243.14697266 C-96.30048248 243.34375359 -96.30048248 243.34375359 -97.73309326 243.54450989 C-100.2097168 243.31958008 -100.2097168 243.31958008 -102.34338379 241.42921448 C-104.25819732 238.83722572 -105.72432805 236.17902215 -107.2097168 233.31958008 C-108.39925266 231.27628038 -109.58937052 229.2333194 -110.7800293 227.19067383 C-111.97045859 225.04920926 -113.15531098 222.90463551 -114.3347168 220.75708008 C-114.92897461 219.68522461 -115.52323242 218.61336914 -116.13549805 217.5090332 C-117.29293025 215.42028966 -118.44704065 213.32970108 -119.59741211 211.23706055 C-120.63760205 209.35482708 -121.68830094 207.47834493 -122.75170898 205.60913086 C-123.20964844 204.80330566 -123.66758789 203.99748047 -124.1394043 203.16723633 C-124.54143066 202.46735596 -124.94345703 201.76747559 -125.35766602 201.04638672 C-126.2097168 199.31958008 -126.2097168 199.31958008 -126.2097168 197.31958008 C-126.8697168 197.31958008 -127.5297168 197.31958008 -128.2097168 197.31958008 C-128.50362305 196.76915039 -128.7975293 196.2187207 -129.1003418 195.65161133 C-133.20946723 188.03555988 -137.49831101 180.52684403 -141.80639648 173.02197266 C-144.60056964 168.151258 -147.36220177 163.26517671 -150.08154297 158.35229492 C-151.6440093 155.53708292 -153.2365304 152.73964616 -154.8347168 149.94458008 C-155.15738525 149.37006104 -155.48005371 148.79554199 -155.8125 148.20361328 C-157.8671505 144.56890357 -160.02145852 141.02558997 -162.27612305 137.51098633 C-162.79287598 136.68195801 -163.30962891 135.85292969 -163.84204102 134.9987793 C-164.85934806 133.36885219 -165.90063839 131.75359081 -166.96801758 130.15600586 C-170.34728703 124.65810887 -170.34728703 124.65810887 -169.97119141 120.9987793 C-169.23030691 118.63966686 -168.32160337 116.5269239 -167.2097168 114.31958008 C-166.90622314 113.69140381 -166.60272949 113.06322754 -166.29003906 112.41601562 C-165.37164227 110.60453509 -164.39615811 108.83777384 -163.3972168 107.06958008 C-160.26274329 101.36148606 -157.43338058 95.58788209 -154.7487793 89.65161133 C-153.1014876 86.08526662 -151.35715216 82.57465597 -149.5847168 79.06958008 C-145.40998489 70.80406692 -141.41247503 62.45565115 -137.42211914 54.09985352 C-136.02240259 51.17094549 -134.6183162 48.24422554 -133.2097168 45.31958008 C-132.83919189 44.54936523 -132.46866699 43.77915039 -132.08691406 42.9855957 C-130.17299465 39.07388177 -128.10370852 35.4273865 -125.6472168 31.81958008 C-124.62047852 30.30750977 -124.62047852 30.30750977 -123.57299805 28.76489258 C-123.19997559 28.22123047 -122.82695312 27.67756836 -122.44262695 27.11743164 C-121.0610383 25.10277445 -119.68820785 23.08227164 -118.31518555 21.06176758 C-117.32217134 19.6057141 -116.3286857 18.14998201 -115.3347168 16.69458008 C-114.85832764 15.99526367 -114.38193848 15.29594727 -113.89111328 14.57543945 C-113.44195557 13.92124023 -112.99279785 13.26704102 -112.5300293 12.59301758 C-112.13058105 12.00955566 -111.73113281 11.42609375 -111.31958008 10.82495117 C-109.8165487 8.78630368 -108.80541534 7.46889685 -106.2973938 6.84024048 C-105.51580902 6.73239227 -104.73422424 6.62454407 -103.92895508 6.51342773 C-103.03752304 6.38621841 -102.146091 6.25900909 -101.22764587 6.12794495 C-100.2549324 5.99782516 -99.28221893 5.86770538 -98.2800293 5.73364258 C-97.27013443 5.59171982 -96.26023956 5.44979706 -95.21974182 5.30357361 C-91.92579795 4.84251503 -88.63036367 4.3932896 -85.3347168 3.94458008 C-83.08307033 3.63272158 -80.83152398 3.32013946 -78.58007812 3.00683594 C-75.22672034 2.54051838 -71.87326529 2.07502957 -68.51930237 1.61308289 C-62.39085857 0.76833136 -56.26789055 -0.10262519 -50.15112305 -1.02807617 C-48.89348145 -1.21644043 -47.63583984 -1.40480469 -46.34008789 -1.59887695 C-44.13765003 -1.93091375 -41.93605021 -2.26858928 -39.7355957 -2.61352539 C-25.78021265 -4.68432417 -13.68429506 -2.90787029 0 0 Z M-62.53393555 45.18286133 C-66.1915947 49.07366711 -68.52240191 53.83119134 -71.0222168 58.50708008 C-71.52430664 59.42166992 -72.02639648 60.33625977 -72.54370117 61.27856445 C-75.17500594 65.56848904 -75.17500594 65.56848904 -76.2097168 70.31958008 C-76.8697168 70.31958008 -77.5297168 70.31958008 -78.2097168 70.31958008 C-78.52682617 70.91641602 -78.84393555 71.51325195 -79.1706543 72.12817383 C-82.33696243 78.01470802 -85.63467954 83.80822267 -89.0222168 89.56958008 C-89.44253174 90.29274414 -89.86284668 91.0159082 -90.29589844 91.76098633 C-92.41542158 95.38413027 -94.59101586 98.92763354 -96.9597168 102.39379883 C-97.39050537 103.04509766 -97.82129395 103.69639648 -98.26513672 104.36743164 C-99.07657464 105.58718878 -99.91391539 106.79028234 -100.78125 107.97094727 C-102.38475909 110.42283073 -103.29756971 112.51260408 -102.97680664 115.45898438 C-102.22049533 118.16635559 -101.25958166 120.71125694 -100.2097168 123.31958008 C-99.77957275 124.42922119 -99.34942871 125.5388623 -98.90625 126.68212891 C-97.37710725 130.55621528 -95.79958639 134.40767134 -94.2097168 138.25708008 C-93.63264297 139.6629162 -93.05598874 141.06892463 -92.47973633 142.47509766 C-91.59734381 144.62773995 -90.71445924 146.78017046 -89.82962036 148.93180847 C-87.87169813 153.69394684 -85.93583461 158.4644878 -84.0144043 163.24145508 C-83.51450956 164.48116224 -83.01451194 165.72082793 -82.5144043 166.96044922 C-81.58193811 169.2736214 -80.65212327 171.58786467 -79.7253418 173.90332031 C-79.30510742 174.94174072 -78.88487305 175.98016113 -78.4519043 177.05004883 C-78.0895166 177.95134521 -77.72712891 178.8526416 -77.35375977 179.78125 C-74.86462804 185.30397782 -72.86461183 188.42712143 -67.19799805 190.65942383 C-55.45132763 193.25443991 -41.42024833 189.90627175 -29.66650391 188.45117188 C-23.98569977 187.76279348 -18.41920007 187.24366672 -12.6940918 187.20629883 C3.28272026 186.96525078 13.06738444 182.37915647 25.38989258 172.22680664 C27.7902832 170.31958008 27.7902832 170.31958008 30.39379883 168.67016602 C35.05310136 165.67769323 35.05310136 165.67769323 37.4777832 160.90185547 C37.65127684 157.86978305 37.51473093 154.97348389 37.2902832 151.94458008 C37.19960684 149.54250228 37.11680917 147.14011906 37.0402832 144.73754883 C37.01470337 144.08816849 36.98912354 143.43878815 36.96276855 142.76972961 C36.62797115 133.59659465 37.01381901 124.42779825 37.2902832 115.25708008 C37.38807437 111.8704635 37.48177057 108.48376262 37.5715332 105.09692383 C37.59300415 104.2886615 37.6144751 103.48039917 37.63659668 102.64764404 C37.84449594 94.2048595 37.83614722 85.76429221 37.7902832 77.31958008 C37.08500488 77.03405273 36.37972656 76.74852539 35.65307617 76.4543457 C26.41063787 72.66396677 17.4013121 68.43805013 8.38793945 64.13598633 C-2.4754902 59.02307647 -13.38803801 54.83442099 -25.08422852 52.07495117 C-28.6203408 51.22034006 -32.11666722 50.25729313 -35.61987305 49.27661133 C-37.50416016 48.74970703 -37.50416016 48.74970703 -39.42651367 48.2121582 C-41.36876522 47.66667059 -43.31100199 47.12112497 -45.25244141 46.57275391 C-47.1656288 46.03313695 -49.08023134 45.49854524 -50.99487305 44.96411133 C-52.67915405 44.49001831 -52.67915405 44.49001831 -54.39746094 44.00634766 C-58.79582533 42.91702868 -58.79582533 42.91702868 -62.53393555 45.18286133 Z " fill="#F1F1F5" transform="translate(631.209716796875,459.680419921875)"/>
<path d="M0 0 C2.21979278 0.72995569 4.43985308 1.45909825 6.66015625 2.1875 C7.79598145 2.56132812 8.93180664 2.93515625 10.10205078 3.3203125 C13.51375947 4.42176438 16.93742515 5.4692552 20.37109375 6.5 C21.47203369 6.83572021 22.57297363 7.17144043 23.70727539 7.51733398 C25.79255682 8.15169705 27.88141554 8.77447082 29.97436523 9.38305664 C36.39299997 11.36325664 41.61668636 14.07271002 47.17431641 17.84936523 C49.25653273 19.2340327 51.30143591 20.37965203 53.5625 21.4375 C53.5625 22.0975 53.5625 22.7575 53.5625 23.4375 C54.11035156 23.55609375 54.65820312 23.6746875 55.22265625 23.796875 C60.66163895 25.28601217 64.66522035 27.27224597 68.5625 31.4375 C71.14656686 36.92774733 71.89473376 43.16063024 72.94384766 49.08789062 C73.9950458 54.7794607 75.28611932 60.41944884 76.54415894 66.06808472 C77.15425256 68.82104181 77.75158782 71.57670624 78.34925842 74.3323822 C80.08748976 82.34033427 81.89601932 90.33046269 83.75 98.3125 C83.99435791 99.36606689 84.23871582 100.41963379 84.49047852 101.50512695 C84.95921732 103.52557486 85.42804509 105.54600214 85.89697266 107.56640625 C86.91997714 111.97966109 87.93671623 116.39415094 88.9375 120.8125 C89.10531982 121.53808105 89.27313965 122.26366211 89.44604492 123.01123047 C90.18092108 126.27990251 90.5625 129.06050657 90.5625 132.4375 C56.76240385 133.57448058 22.9690598 133.56199096 -10.84488428 133.50952661 C-18.34742059 133.49809941 -25.84995811 133.49278886 -33.35250103 133.48782361 C-48.71417747 133.47752862 -64.07583639 133.4600828 -79.4375 133.4375 C-78.34583563 135.94175038 -77.2532499 138.44559229 -76.16015625 140.94921875 C-75.85613892 141.64688354 -75.55212158 142.34454834 -75.2388916 143.06335449 C-70.42214933 154.08990084 -65.45601768 165.00540268 -59.4375 175.4375 C-58.89351562 176.43265625 -58.34953125 177.4278125 -57.7890625 178.453125 C-54.40568881 184.59079125 -54.40568881 184.59079125 -48.8125 188.4375 C-47.35542503 188.77629161 -45.89684927 189.10864299 -44.4375 189.4375 C-43.62055664 189.66091064 -42.80361328 189.88432129 -41.96191406 190.11450195 C-32.0324374 192.69270251 -22.03307985 193.5240657 -11.83496094 194.37280273 C-8.81081486 194.62514061 -5.78827623 194.89250965 -2.765625 195.16210938 C-0.80997216 195.3316121 1.14575491 195.50026104 3.1015625 195.66796875 C3.98832672 195.7460527 4.87509094 195.82413666 5.78872681 195.90458679 C19.42868479 197.25296877 19.42868479 197.25296877 32.0625 193 C33.43615208 192.25921382 34.81121623 191.52104156 36.1875 190.78515625 C36.89777344 190.39859863 37.60804688 190.01204102 38.33984375 189.61376953 C42.96077331 187.16829077 47.72765231 185.01668695 52.47216797 182.82373047 C56.40158751 180.99160356 60.23943438 179.09549742 64.0078125 176.94921875 C74.15332204 171.25169455 74.15332204 171.25169455 78.5546875 171.83203125 C80.82955029 172.83481345 82.64710459 173.86261933 84.5625 175.4375 C83.97673205 181.76379388 82.46236433 187.3912083 80.5625 193.4375 C78.56987456 199.97532061 77.27072355 205.72373008 77.25 212.5625 C76.89535377 222.14779954 74.01944471 232.1038136 67.5625 239.4375 C63.04464293 241.79033319 58.91790047 242.16457145 53.93310547 242.3203125 C50.48692299 242.49066962 47.11499642 243.02018349 43.70458984 243.52734375 C40.90385154 243.9424876 38.10039169 244.32045348 35.29296875 244.6875 C34.34856934 244.81125 33.40416992 244.935 32.43115234 245.0625 C31.48449707 245.18625 30.5378418 245.31 29.5625 245.4375 C25.79099236 245.93254664 22.02019652 246.43256591 18.25 246.9375 C16.88210327 247.11877441 16.88210327 247.11877441 15.48657227 247.30371094 C11.23142992 247.8811207 7.00582942 248.5140229 2.7890625 249.328125 C1.66624878 249.5437207 1.66624878 249.5437207 0.52075195 249.76367188 C-1.4619026 250.15528506 -3.4401859 250.56885729 -5.41796875 250.984375 C-16.32484156 252.58784194 -26.84218036 248.88410857 -37.1875 245.875 C-40.37871952 244.96218204 -43.57202899 244.05680773 -46.765625 243.15234375 C-47.5690332 242.92400848 -48.37244141 242.69567322 -49.20019531 242.4604187 C-58.71476753 239.76939359 -68.29679286 237.34523305 -77.88964844 234.95092773 C-79.09137695 234.64743408 -80.29310547 234.34394043 -81.53125 234.03125 C-82.57990234 233.77021484 -83.62855469 233.50917969 -84.70898438 233.24023438 C-87.15019345 232.52202612 -89.21644324 231.66373613 -91.4375 230.4375 C-91.4375 229.7775 -91.4375 229.1175 -91.4375 228.4375 C-92.0975 228.4375 -92.7575 228.4375 -93.4375 228.4375 C-94.47192074 226.79197531 -95.46157713 225.11837844 -96.4375 223.4375 C-98.78150397 220.14256703 -101.2354778 216.92668195 -103.67382812 213.70117188 C-104.15658203 213.05341797 -104.63933594 212.40566406 -105.13671875 211.73828125 C-105.57846436 211.15216064 -106.02020996 210.56604004 -106.4753418 209.9621582 C-107.4375 208.4375 -107.4375 208.4375 -107.4375 206.4375 C-108.0975 206.1075 -108.7575 205.7775 -109.4375 205.4375 C-114.71878147 198.45664488 -116.92219665 191.19098803 -118.75 182.75 C-119.18009809 180.86965484 -119.61021702 178.98931437 -120.04095459 177.1091156 C-120.50843023 175.05517234 -120.96751717 172.99948483 -121.42529297 170.94335938 C-122.53413638 165.98079223 -123.69014866 161.02952935 -124.84765625 156.078125 C-126.44459363 149.23210407 -128.04034431 142.38583755 -129.6171875 135.53515625 C-129.78666397 134.80504333 -129.95614044 134.07493042 -130.13075256 133.32269287 C-132.39291815 123.4620044 -133.40019657 115.4197286 -130.66015625 105.59765625 C-130.29170168 104.25642868 -129.92446981 102.91486472 -129.55834961 101.57299805 C-129.37094208 100.88764984 -129.18353455 100.20230164 -128.990448 99.4961853 C-128.11725158 96.24518043 -127.31288083 92.97954395 -126.5078125 89.7109375 C-126.34970093 89.0691304 -126.19158936 88.4273233 -126.02868652 87.7660675 C-125.70513018 86.45259497 -125.38177759 85.13907223 -125.05862427 83.82550049 C-116.23909875 48.0406975 -116.23909875 48.0406975 -113.4375 42.4375 C-112.7775 42.4375 -112.1175 42.4375 -111.4375 42.4375 C-111.19 41.695 -110.9425 40.9525 -110.6875 40.1875 C-108.1424919 34.58848218 -103.41204931 32.03382908 -98.25 29.0625 C-93.98337777 26.56100581 -89.76489211 24.05459457 -85.6875 21.25 C-80.81152147 17.92881463 -75.63524611 15.21546844 -70.4375 12.4375 C-69.303125 11.798125 -68.16875 11.15875 -67 10.5 C-66.44868408 10.19006104 -65.89736816 9.88012207 -65.3293457 9.56079102 C-63.87061708 8.69466501 -62.44513157 7.77239021 -61.03588867 6.82788086 C-53.29584633 1.86027036 -46.22443219 -0.22223861 -37.29980469 -1.70898438 C-35.17064874 -2.06532023 -33.0510519 -2.45948562 -30.9296875 -2.859375 C-19.18453023 -4.99998847 -11.2422239 -3.74358828 0 0 Z M-54.4375 47.4375 C-54.9221875 48.56285156 -55.406875 49.68820312 -55.90625 50.84765625 C-59.19678913 58.41117062 -62.54367665 65.88326316 -66.5 73.125 C-69.29478978 78.2544322 -71.97777229 83.4178115 -74.5 88.6875 C-74.81138916 89.32002686 -75.12277832 89.95255371 -75.44360352 90.60424805 C-77.29111292 94.38151907 -77.29111292 94.38151907 -76.4375 98.4375 C-66.67257559 98.46104718 -56.90766148 98.47862453 -47.1427145 98.48931217 C-42.60465403 98.49445101 -38.06661347 98.50137662 -33.52856445 98.51293945 C-11.14130884 98.56850897 11.19202483 98.36585265 33.5625 97.4375 C31.30739638 90.53392496 31.30739638 90.53392496 28.73046875 83.74609375 C28.40626953 82.94494141 28.08207031 82.14378906 27.74804688 81.31835938 C27.41869141 80.51205078 27.08933594 79.70574219 26.75 78.875 C23.18209384 70.1253072 19.85619381 61.29314061 16.5625 52.4375 C-18.85823573 48.6525387 -18.85823573 48.6525387 -54.4375 47.4375 Z " fill="#F4F0F0" transform="translate(1169.4375,457.5625)"/>
<path d="M0 0 C2.97069809 3.52668718 5.27996068 7.07416788 7.46875 11.12890625 C7.78586945 11.71160278 8.10298889 12.29429932 8.42971802 12.89465332 C9.10667159 14.13854803 9.78168412 15.38350078 10.45489502 16.62942505 C15.64605336 26.23123381 20.93348499 35.74570559 26.625 45.0625 C30.22631585 50.96334458 33.57448951 56.86345107 36.5546875 63.109375 C38.66741342 67.33482684 41.05344126 71.39568595 43.46191406 75.45849609 C46 79.79160175 46 79.79160175 46 82 C46.99 82.495 46.99 82.495 48 83 C48.94050331 84.43996716 49.81370256 85.92420446 50.65234375 87.42578125 C51.17675049 88.3588208 51.70115723 89.29186035 52.24145508 90.25317383 C52.8011499 91.26275146 53.36084473 92.2723291 53.9375 93.3125 C54.51072998 94.33819092 55.08395996 95.36388184 55.67456055 96.4206543 C56.86417343 98.55237891 58.05106482 100.68562434 59.23535156 102.8203125 C60.91831791 105.85281855 62.61057805 108.87995913 64.3046875 111.90625 C65.30794217 113.70797127 66.31057693 115.5100379 67.3125 117.3125 C67.7861499 118.15917236 68.2597998 119.00584473 68.74780273 119.87817383 C69.17778564 120.65700928 69.60776855 121.43584473 70.05078125 122.23828125 C70.42887939 122.91930908 70.80697754 123.60033691 71.1965332 124.30200195 C72 126 72 126 72 128 C72.66 128 73.32 128 74 128 C74.44988281 128.93457031 74.89976563 129.86914062 75.36328125 130.83203125 C79.51528266 139.34946499 83.99097871 147.60398275 88.78369141 155.77734375 C91.99255973 161.24979805 95.12147787 166.75878262 98.1875 172.3125 C101.65652199 178.58980989 105.17444117 184.83496119 108.74609375 191.0546875 C110.5231901 194.15620037 112.28120347 197.26815536 114.03515625 200.3828125 C120.5734545 211.99312791 127.18966595 223.54695515 134 235 C134.3623877 234.32533691 134.72477539 233.65067383 135.09814453 232.95556641 C136.77128871 229.84403994 138.44812174 226.73451556 140.125 223.625 C140.69476562 222.56410156 141.26453125 221.50320313 141.8515625 220.41015625 C145.40332545 213.8313226 149.11712152 207.38777939 153 201 C158.0301887 192.50101769 162.68164545 183.88425809 167 175 C167.66488115 173.6657754 168.33083295 172.33208021 169 171 C169.66 171 170.32 171 171 171 C171.26296875 170.12730469 171.5259375 169.25460937 171.796875 168.35546875 C172.98676612 165.03690879 174.42680683 162.32241124 176.25 159.3125 C178.47919664 155.57128679 180.6755509 151.82928831 182.75 148 C183.23339844 147.10796875 183.71679688 146.2159375 184.21484375 145.296875 C184.80394531 144.20890625 185.39304687 143.1209375 186 142 C191.46626321 131.9257196 196.97110109 121.90138887 202.92578125 112.10620117 C207.35181319 104.81230172 211.36978714 97.34126175 215.140625 89.69140625 C216.31117691 87.38754725 217.65490305 85.20595899 219 83 C219.74707622 81.66809494 220.48859732 80.33306846 221.2265625 78.99609375 C224.09833854 73.8125458 227.01630631 68.65581469 229.9375 63.5 C233.55760277 57.10649481 237.16787277 50.70784368 240.75 44.29296875 C241.36625244 43.18953125 241.98250488 42.08609375 242.61743164 40.94921875 C243.79768534 38.8341028 244.97663928 36.71826084 246.15405273 34.6015625 C249.23449279 29.08158847 252.38920044 23.6243728 255.69238281 18.234375 C257.01573707 15.97310948 258.17378772 13.67122369 259.3125 11.3125 C262.05850397 6.26918553 266.13755491 2.9709635 271 0 C271.66 0 272.32 0 273 0 C270.32359411 13.15899563 265.76375224 25.77476485 261.39987183 38.44802856 C259.84570872 42.96346614 258.29959124 47.48165444 256.75390625 52 C256.28308372 53.37618248 256.28308372 53.37618248 255.80274963 54.78016663 C252.64248094 64.02811241 249.53004166 73.29171584 246.4375 82.5625 C246.19628418 83.28374054 245.95506836 84.00498108 245.70654297 84.74807739 C243.23687942 92.13574492 240.8190609 99.53406549 238.51953125 106.9765625 C236.16756882 114.57657917 233.61471867 122.09969676 231.01055908 129.61651611 C229.681241 133.45469405 228.36010676 137.29568667 227.0390625 141.13671875 C226.77576141 141.90201904 226.51246033 142.66731934 226.24118042 143.45581055 C223.99354455 149.99829258 221.79875181 156.5576036 219.625 163.125 C217.05416483 170.89086695 214.44587554 178.64209712 211.7890625 186.37890625 C211.50406891 187.20900208 211.21907532 188.0390979 210.92544556 188.89434814 C210.63535614 189.73922791 210.34526672 190.58410767 210.04638672 191.45458984 C204.45388195 207.74317538 198.98904378 224.06339109 193.70892334 240.45596313 C188.84127698 255.55760415 183.75617574 270.57957899 178.58007812 285.578125 C176.13624095 292.66938487 173.71945902 299.74217178 171.62573242 306.9465332 C170.81503599 309.60699659 169.83896516 312.18548258 168.83935547 314.77978516 C166.97522844 319.71066683 165.28801326 324.70684487 163.5625 329.6875 C163.18029297 330.78255859 162.79808594 331.87761719 162.40429688 333.00585938 C160.10868674 339.62766178 157.97213769 346.27949252 155.93530273 352.98510742 C154.64808143 357.13438851 153.22117283 361.22549182 151.75 365.3125 C151.481875 366.06466797 151.21375 366.81683594 150.9375 367.59179688 C150.29416759 369.39542525 149.64747712 371.19785536 149 373 C142.61254427 372.61489352 136.30081303 371.8508229 130 370.75 C128.741875 370.53859375 127.48375 370.3271875 126.1875 370.109375 C122.23130456 368.73246384 121.87070413 367.65188873 120 364 C119.21132916 362.00451429 118.47992942 359.98586944 117.79296875 357.953125 C117.37861572 356.73713623 116.9642627 355.52114746 116.53735352 354.26831055 C116.08734722 352.92889222 115.63739793 351.58945473 115.1875 350.25 C114.70752947 348.83549656 114.22696382 347.42119493 113.74584961 346.00708008 C112.70829988 342.95504269 111.67388686 339.9019664 110.64160156 336.84814453 C108.96588114 331.89420655 107.27734695 326.94469393 105.5859375 321.99609375 C105.29785721 321.15321808 105.00977692 320.31034241 104.71296692 319.44192505 C104.12558311 317.72347884 103.53816533 316.00504425 102.95071411 314.28662109 C101.75923705 310.80008207 100.56929519 307.31301991 99.37934875 303.82595825 C84.9988582 261.56807657 84.9988582 261.56807657 70.32836914 219.41064453 C66.97550761 209.90642344 63.78384982 200.35295797 60.62081909 190.78408813 C56.80455182 179.25430451 52.78629796 167.80249944 48.66699219 156.37768555 C46.49210026 150.3202654 44.39584011 144.27270859 42.60644531 138.08935547 C41.00208575 132.56193633 39.07679116 127.17112774 37.02355957 121.79542542 C33.40768785 112.30522558 30.16859649 102.70959732 27 93.0625 C26.00222216 90.03181478 25.00229307 87.00185124 24 83.97265625 C23.62983765 82.85378525 23.62983765 82.85378525 23.25219727 81.71231079 C21.3003703 75.84114842 19.25419051 70.00646601 17.17886353 64.17799377 C15.57267433 59.65655379 14.0278746 55.11913278 12.5234375 50.5625 C10.70401092 45.05614893 8.80070754 39.58664096 6.8515625 34.125 C6.04680127 31.85019847 5.24356582 29.57486443 4.44091797 27.29931641 C3.89125428 25.75032399 3.33645761 24.2031446 2.77685547 22.65771484 C1.95404042 20.3807993 1.15113695 18.09766371 0.3515625 15.8125 C0.09960114 15.13010254 -0.15236023 14.44770508 -0.41195679 13.74462891 C-1.99735284 9.13536462 -2.09367514 5.73900804 -1 1 C-0.67 0.67 -0.34 0.34 0 0 Z " fill="#F4F0F0" transform="translate(1563,335)"/>
<path d="M0 0 C30.02514898 -0.24982523 59.98982756 0.03754462 90 0.9375 C90.77042759 0.96055962 91.54085518 0.98361923 92.33462906 1.00737762 C95.4535785 1.10081343 98.5725197 1.19452242 101.69146061 1.28824234 C103.23342564 1.33457199 104.77539144 1.38087618 106.31735802 1.42715454 C107.84547901 1.47303911 109.37359716 1.51901862 110.90171242 1.56509399 C124.6622036 1.97871272 138.42260905 2.27332799 152.1875 2.5 C174.39837967 2.87312087 196.60614076 3.35138563 218.81411743 3.86694336 C222.60313304 3.95490518 226.3921732 4.04164186 230.1812439 4.12719727 C268.70055974 4.99875479 268.70055974 4.99875479 286 6 C286 6.66 286 7.32 286 8 C273.41568117 11.25456521 260.36748748 11.1683713 247.4375 11.5 C245.93448496 11.54086967 244.431474 11.58188998 242.9284668 11.62304688 C229.41661188 11.98673359 215.90293244 12.27356838 202.38931274 12.5625 C190.6319067 12.81438204 178.87862316 13.10613554 167.125 13.5 C154.00177352 13.93861166 140.87773009 14.23243109 127.75 14.5 C113.72755095 14.78582779 99.7070471 15.09510118 85.6875 15.5 C73.29684853 15.85598213 60.90590462 16.19181668 48.51382446 16.49462891 C46.70698305 16.53899942 44.90015831 16.58405526 43.09335327 16.62988281 C38.17061038 16.75439894 33.24798021 16.86400441 28.32446289 16.95294189 C25.98862173 17.00023035 23.65373374 17.06621134 21.31835938 17.13232422 C19.86329939 17.16077395 18.40822149 17.18832626 16.953125 17.21484375 C15.68114258 17.24570068 14.40916016 17.27655762 13.09863281 17.30834961 C10 17 10 17 8.17944336 15.66455078 C6.40863743 13.16540881 4.84845344 10.58758319 3.3125 7.9375 C2.37857422 6.34228516 2.37857422 6.34228516 1.42578125 4.71484375 C0 2 0 2 0 0 Z " fill="#F2F1F1" transform="translate(1263,745)"/>
</svg>
